<svg xmlns="http://www.w3.org/2000/svg" xmlns:xlink="http://www.w3.org/1999/xlink" viewBox="0 0 181.23 181.23"><defs><style>.cls-1{fill:#ecf0f1;}.cls-2{fill:url(#linear-gradient);}.cls-3{fill:#f9dac5;}.cls-4{fill:#f2bc9e;}.cls-5{fill:#332113;}.cls-6{fill:url(#linear-gradient-2);}.cls-7{fill:#fff;stroke:#ff6b6b;stroke-miterlimit:10;stroke-width:1.93px;}.cls-8{fill:#f4bfab;}.cls-9{fill:url(#linear-gradient-3);}.cls-10{fill:#1b6163;}</style><linearGradient id="linear-gradient" x1="90.66" y1="181.23" x2="90.66" y2="16.48" gradientUnits="userSpaceOnUse"><stop offset="0.02" stop-color="#d86d25"/><stop offset="0.46" stop-color="#bc5224"/><stop offset="0.84" stop-color="#a83f23"/></linearGradient><linearGradient id="linear-gradient-2" x1="103.1" y1="63.84" x2="133.82" y2="63.84" gradientUnits="userSpaceOnUse"><stop offset="0.17" stop-color="#a53d21"/><stop offset="0.38" stop-color="#a84123"/><stop offset="0.6" stop-color="#b24f28"/><stop offset="0.83" stop-color="#c26430"/><stop offset="1" stop-color="#d27a38"/></linearGradient><linearGradient id="linear-gradient-3" x1="42.32" y1="69.16" x2="112.41" y2="69.16" gradientUnits="userSpaceOnUse"><stop offset="0.28" stop-color="#c7682e"/><stop offset="0.31" stop-color="#c5652d"/><stop offset="0.53" stop-color="#bb5129"/><stop offset="0.76" stop-color="#b44627"/><stop offset="1" stop-color="#b24226"/></linearGradient></defs><title>Asset 5</title><g id="Layer_2" data-name="Layer 2"><g id="objects"><circle class="cls-1" cx="90.61" cy="90.61" r="90.61"/><path class="cls-2" d="M90.61,181.23a90.38,90.38,0,0,0,67.08-29.69c-6,4.7-14.82.49-18.57-7.19-3.93-8-4.66-18-3.84-27.34,1.15-13.08,2.29-26.24,1.61-39.37s-3.3-26.37-9.11-37.23a44.14,44.14,0,0,0-78.48,0c-5.81,10.86-8.43,24.09-9.11,37.23s.47,26.29,1.61,39.37c.82,9.36.09,19.29-3.84,27.34-3.72,7.62-8.75,11.83-14.33,7.29A90.38,90.38,0,0,0,90.61,181.23Z"/><path class="cls-3" d="M142.68,156.37a25,25,0,0,0-8.2-4.36l-27.67-8.8c-2-.61-3.08-2.47-3.44-4.55-1-5.89-.88-21.39-.85-23.92a.34.34,0,0,0-.35-.35H77.76a.34.34,0,0,0-.35.35c0,2.5.12,17.72-.85,23.92a5.33,5.33,0,0,1-3.44,4.55L45.37,152a24,24,0,0,0-7.16,3.59A26.84,26.84,0,0,0,33.62,160l.3.27a85.42,85.42,0,0,0,49,20.6H97a85.4,85.4,0,0,0,49-20.61l.37-.33A26.65,26.65,0,0,0,142.68,156.37Z"/><path class="cls-3" d="M103.29,139.27c-1-6-.92-21.93-.89-24.52a.36.36,0,0,0-.37-.36H76.51a.36.36,0,0,0-.37.36c0,2.56.13,18.17-.89,24.52a5.48,5.48,0,0,1-3.59,4.67l-25.72,8a132.73,132.73,0,0,0,86.65,0l-25.72-8A5.52,5.52,0,0,1,103.29,139.27Z"/><path class="cls-4" d="M102.46,128.1c-.12-5.43-.08-10.59-.07-12a.36.36,0,0,0-.37-.36H76.51a.36.36,0,0,0-.37.36c0,1.38,0,6.52-.08,12A40.84,40.84,0,0,0,102.46,128.1Z"/><path class="cls-3" d="M58.51,81.75c2.3,5.45,1,14-2.92,15.62s-8.94-4.21-11.23-9.66-1-11.2,2.92-12.85S56.22,76.3,58.51,81.75Z"/><path class="cls-3" d="M120,81.75c-2.3,5.45-1,14,2.92,15.62s8.94-4.21,11.23-9.66,1-11.2-2.92-12.85S122.32,76.3,120,81.75Z"/><path class="cls-3" d="M89.27,27.92C50.14,26.39,49.57,63.71,50.16,76c.42,8.91,3.92,21.86,5.81,28.29a22,22,0,0,0,5.86,9.79c10.21,9.75,27.44,13.06,27.44,13.06s17.23-3.31,27.44-13.06a22,22,0,0,0,5.86-9.79C124.46,97.85,128,84.9,128.38,76,129,63.71,128.4,26.39,89.27,27.92Z"/><ellipse class="cls-5" cx="68.83" cy="79.12" rx="5.09" ry="6"/><ellipse class="cls-5" cx="108.16" cy="79.12" rx="5.09" ry="6"/><path class="cls-6" d="M110.36,31c8.16.65,15.35,6.43,19.18,13.66s4.7,15.73,4.09,23.9a71.94,71.94,0,0,1-8.21,28.33c5.64-19.6-4.06-40.35-19.94-53.14-2.78-2.24-3.15-7.45-1-10.3S106.8,30.68,110.36,31Z"/><path class="cls-7" d="M75.34,103.72a15.28,15.28,0,0,0,27.86,0Z"/><circle class="cls-8" cx="63.17" cy="93.52" r="5.67"/><circle class="cls-8" cx="113.25" cy="93.52" r="5.67"/><polygon class="cls-5" points="109.13 76.66 115.25 74.92 112.88 78.13 109.13 76.66"/><polygon class="cls-5" points="67.4 76.66 61.27 74.92 63.64 78.13 67.4 76.66"/><path class="cls-9" d="M112.21,29.17c.06-5.33-6.39-8.38-11.87-9-16.72-1.77-36.07,4.59-46,17.71s-11.07,32.42-12,48.65c-.52,9.58.67,18.6,2.19,27.59q.4,2.13.9,4.25c1.3-14.44,8.29-31.87,13-40.25,9.64-17,32.59-26,50.58-34.81C113.66,41.12,112.16,34.07,112.21,29.17Z"/><path class="cls-10" d="M90.61,181.23A90.24,90.24,0,0,0,148.87,160c-.24-.27-.47-.55-.73-.81a27.73,27.73,0,0,0-2.8-2.56q-1-.76-2-1.42a27,27,0,0,0-6.59-3.06l-12-3.76c-9.8,11.55-21.68,18.33-34.48,18.33S65.58,160,55.77,148.41l-12.13,3.78a28.18,28.18,0,0,0-3.9,1.53,22.81,22.81,0,0,0-3.58,2.15A27.62,27.62,0,0,0,32,159.69,90.25,90.25,0,0,0,90.61,181.23Z"/></g></g></svg>