<svg xmlns="http://www.w3.org/2000/svg" viewBox="0 0 1000 279.54"><defs><style>.cls-1{fill:#243947;}.cls-2{fill:#1c6163;}.cls-3{fill:#4a8e89;}</style></defs><title>skyline</title><g id="Layer_2" data-name="Layer 2"><g id="Layer_1-2" data-name="Layer 1"><path class="cls-1" d="M998.67,278.86V180s-54.92-31.11-67.28-37.4-20.19-5.87-26-7.93-12-2.06-20.19,0S830,168,827.13,169.65s-9.48,3.3-12.36,2.88-7.83-2.06-9.89-3.71-8.65-1.65-13.19,1.65-4.12,7.83-8.24,8.65-10.71.82-14,5.36c-1.65,1.24-11.13-.41-13.6-.41s-8.65,4.95-10.71,6.59-15.25-2.06-20.61,3.3c-3.71.41-8.24-7-16.48-.41-5.77,0-9.48-.41-15.66,2.06s-7-3.71-9.89-.82-3.71,4.12-7,3.71-22.67-4.53-29.26-.82c-4.95-1.24-31.73-.41-31.73-.41S563,194.79,558,199.73s-12.36,5-16.48,6.23-21.12-3.66-33.23,0-47-6.23-51-6.23-24.57,5-27,6.23-86.54-5.41-100.55-4.58-19,8.24-29.26,10.71-8.65-6.49-22.67-6.13-44.1,40.75-61.4,39.51-28.44-12.36-40.8-7.42-50.69,30.49-69.23,31.32a71.54,71.54,0,0,0-32.14,9.48Z"/><polygon class="cls-1" points="347 102.21 338.33 102.21 338.33 96.12 306.93 96.12 306.93 102.21 298.26 102.21 298.26 108.3 285.93 108.3 285.93 278.86 359.34 278.86 359.34 108.3 347 108.3 347 102.21"/><rect class="cls-1" x="164.18" y="133.6" width="26.19" height="145.26"/><polygon class="cls-1" points="125.94 149.25 112.84 149.25 112.84 278.86 125.94 278.86 139.03 278.86 152.12 278.86 152.12 113.68 125.94 113.68 125.94 149.25"/><path class="cls-1" d="M245.13,117.18h11.81v8.55h19.44V95.36c0-.62.37-1.13.82-1.13s.82.5.82,1.13v30.37h0V278.86H214.66V108.06C240.26,108.06,245.13,117.18,245.13,117.18Z"/><polygon class="cls-1" points="586.89 94.23 586.89 117.84 585.13 117.84 585.13 121.42 581.63 121.42 581.63 126.33 575.82 126.33 575.82 129.9 566.57 129.9 563 133.6 563 278.86 588.64 278.86 588.64 133.6 588.64 126.33 588.64 121.42 588.64 117.84 588.64 94.23 586.89 94.23"/><polygon class="cls-1" points="94.15 110.49 94.15 99.82 54.45 99.82 54.45 110.49 54.45 278.86 106.38 278.86 106.38 110.49 94.15 110.49"/><polygon class="cls-2" points="729.75 258.84 729.75 221.87 714.31 221.87 714.31 213.85 711.42 213.85 711.42 211.94 717.19 211.94 717.19 210.56 709.08 210.56 709.08 197.82 708.32 197.82 708.32 210.56 700.01 210.56 700.01 205.23 699.25 205.23 699.25 210.56 694.69 210.56 694.69 188.42 694.11 188.42 694.11 210.56 686.1 210.56 686.1 211.94 691.87 211.94 691.87 213.85 688.98 213.85 688.98 221.87 673.54 221.87 673.54 278.29 726.46 278.29 729.75 278.29 739.67 278.29 739.67 258.84 729.75 258.84"/><polygon class="cls-2" points="58.91 105.37 58.91 84.49 58.04 84.49 58.04 81.78 56.01 81.78 56.01 80.62 52.92 80.62 52.92 78.88 51.18 78.88 51.18 84.49 46.73 84.49 46.73 81.2 43.45 81.2 43.45 78.11 46.34 78.11 46.34 76.08 7.29 71.73 7.29 84.49 0.33 84.49 0.33 278.29 61.09 278.29 61.09 105.37 58.91 105.37"/><polygon class="cls-2" points="85.56 138.49 85.56 135.71 78.65 135.71 78.65 138.49 64.59 138.49 64.59 278.29 114.51 278.29 114.51 138.49 85.56 138.49"/><polygon class="cls-2" points="177.39 129.84 177.39 126.95 174.51 126.95 174.51 122.21 172.86 122.21 172.86 116.85 168.33 116.85 162.15 109.64 148.13 109.64 143.19 116.85 138.66 116.85 138.66 122.21 137.01 122.21 137.01 126.95 134.12 126.95 134.12 129.84 132.58 129.84 132.58 278.29 178.94 278.29 178.94 129.84 177.39 129.84"/><polygon class="cls-2" points="250.13 125.82 245.19 120.97 245.19 95.63 238.03 95.63 238.03 93.47 234.68 93.47 234.68 95.63 196.45 95.63 196.45 98.31 198.1 98.31 198.1 130.25 189.65 130.25 189.65 278.29 256.21 278.29 256.21 125.82 250.13 125.82"/><polygon class="cls-2" points="417.82 146.7 417.82 141.79 423.59 141.79 472.83 191.47 472.83 278.29 417.82 278.29 417.82 146.7"/><polygon class="cls-2" points="484.55 131.16 516.76 131.16 520.56 133.66 520.56 278.29 484.55 278.29 484.55 131.16"/><path class="cls-2" d="M575.88,157.85v-9h-2V119h-1.34V120h-5.92v-3.17l-10.3-10.3v-1.64l1-1L555.41,102l-1.87,1.87,1,1v1.64l-10.3,10.3V120h-5.92V119H537v29.83h-2v9h-1.61V278.29h44.14V157.85Zm-31.5-34.63h-5.8v-2.14h5.8Zm27.87,0h-5.8v-2.14h5.8Z"/><path class="cls-2" d="M592.16,149.31V145c0-1.55.46-3.09,1.55-3.09v-7a38.57,38.57,0,0,1,6.18-.77v-2.32h2.16v-8.5h9.84l3,3v2H612.1v4.53h8.14v-2.37l4.22,2.78v10.82h1.65V278.29H592.16Z"/><path class="cls-2" d="M961.05,170.73h-8.19v-2.32h-4.79v-1.85h-6.26v1.85h-2.09v-1.85h-4.17v1.85h-4.79v2.32h-8.19V278.29h2.58V275.2h2.65v3.09h28V275.2h3.61v3.09H962V170.73Zm-5.23,88.4V254.8h3.61v4.33Zm3.61,2.47v4.33h-3.61V261.6Zm-3.61-9.27V248h3.61v4.33Zm0-6.8V241.2h3.61v4.33Zm0-6.8V234.4h3.61v4.33Zm0-6.8V227.6h3.61v4.33Zm0-6.8V220.8h3.61v4.33Zm0-6.8V214h3.61v4.33Zm0-6.8V207.2h3.61v4.33Zm0-6.8V200.4h3.61v4.33Zm0-6.8V193.6h3.61v4.33Zm0-6.8V186.8h3.61v4.33Zm0-6.8V180h3.61v4.33Zm0-6.8v-4.33h3.61v4.33Zm-30.68-4.33h2.65v4.33h-2.65Zm0,6.8h2.65v4.33h-2.65Zm0,6.8h2.65v4.33h-2.65Zm0,6.8h2.65v4.33h-2.65Zm0,6.8h2.65v4.33h-2.65Zm0,6.8h2.65v4.33h-2.65Zm0,6.8h2.65v4.33h-2.65Zm0,6.8h2.65v4.33h-2.65Zm0,6.8h2.65v4.33h-2.65Zm0,6.8h2.65v4.33h-2.65Zm0,6.8h2.65v4.33h-2.65Zm0,6.8h2.65v4.33h-2.65Zm0,6.8h2.65v4.33h-2.65Zm0,6.8h2.65v4.33h-2.65Zm0,11.13V268.4h2.65v4.33Zm30.68,0V268.4h3.61v4.33Z"/><path class="cls-2" d="M864.63,201.13v-1.85h2.11V196.8H858.3s.62-7.21-4.53-7.21v-3.5H848v3.5c-5.15,0-4.53,7.21-4.53,7.21H835v2.47h2.11v1.85H832v2.06h3.55v75.11h30.6V203.19h3.55v-2.06Z"/><polygon class="cls-2" points="829.33 203.5 829.33 202.26 827.55 202.26 827.55 197.93 827.55 188.35 825.55 188.35 825.55 194.63 821.37 194.63 821.37 197.93 818.9 197.93 818.9 193.14 805.92 193.14 805.92 197.93 803.45 197.93 803.45 194.63 799.27 194.63 799.27 188.35 797.26 188.35 797.26 197.93 797.26 202.26 795.49 202.26 795.49 203.5 797.26 203.5 797.26 206.12 795.49 206.12 795.49 207.36 797.26 207.36 797.26 209.99 795.49 209.99 795.49 211.22 797.26 211.22 797.26 213.85 795.49 213.85 795.49 215.09 797.26 215.09 797.26 217.71 795.49 217.71 795.49 218.95 797.26 218.95 797.26 221.58 795.49 221.58 795.49 222.81 797.26 222.81 797.26 225.44 795.49 225.44 795.49 226.68 797.26 226.68 797.26 229.3 795.49 229.3 795.49 230.54 797.26 230.54 797.26 233.17 795.49 233.17 795.49 234.4 797.26 234.4 797.26 237.03 795.49 237.03 795.49 238.27 797.26 238.27 797.26 240.89 795.49 240.89 795.49 242.13 797.26 242.13 797.26 244.76 795.49 244.76 795.49 245.99 797.26 245.99 797.26 248.62 795.49 248.62 795.49 249.86 797.26 249.86 797.26 252.48 795.49 252.48 795.49 253.72 797.26 253.72 797.26 256.35 795.49 256.35 795.49 257.58 797.26 257.58 797.26 260.21 795.49 260.21 795.49 261.45 797.26 261.45 797.26 264.07 795.49 264.07 795.49 265.31 797.26 265.31 797.26 267.94 795.49 267.94 795.49 269.18 797.26 269.18 797.26 271.8 795.49 271.8 795.49 273.04 797.26 273.04 797.26 275.67 795.49 275.67 795.49 276.9 797.26 276.9 797.26 278.29 827.55 278.29 827.55 276.9 829.33 276.9 829.33 275.67 827.55 275.67 827.55 273.04 829.33 273.04 829.33 271.8 827.55 271.8 827.55 269.18 829.33 269.18 829.33 267.94 827.55 267.94 827.55 265.31 829.33 265.31 829.33 264.07 827.55 264.07 827.55 261.45 829.33 261.45 829.33 260.21 827.55 260.21 827.55 257.58 829.33 257.58 829.33 256.35 827.55 256.35 827.55 253.72 829.33 253.72 829.33 252.48 827.55 252.48 827.55 249.86 829.33 249.86 829.33 248.62 827.55 248.62 827.55 245.99 829.33 245.99 829.33 244.76 827.55 244.76 827.55 242.13 829.33 242.13 829.33 240.89 827.55 240.89 827.55 238.27 829.33 238.27 829.33 237.03 827.55 237.03 827.55 234.4 829.33 234.4 829.33 233.17 827.55 233.17 827.55 230.54 829.33 230.54 829.33 229.3 827.55 229.3 827.55 226.68 829.33 226.68 829.33 225.44 827.55 225.44 827.55 222.81 829.33 222.81 829.33 221.58 827.55 221.58 827.55 218.95 829.33 218.95 829.33 217.71 827.55 217.71 827.55 215.09 829.33 215.09 829.33 213.85 827.55 213.85 827.55 211.22 829.33 211.22 829.33 209.99 827.55 209.99 827.55 207.36 829.33 207.36 829.33 206.12 827.55 206.12 827.55 203.5 829.33 203.5"/><polygon class="cls-2" points="790.88 209.99 790.88 207.72 788.71 207.72 788.71 199.06 782.22 199.06 782.22 196.8 775.84 196.8 775.84 193.4 775.84 187.63 773.36 187.63 773.36 193.4 769.14 193.4 769.14 196.8 762.44 196.8 762.44 199.06 755.95 199.06 755.95 207.72 753.79 207.72 753.79 209.99 755.95 209.99 755.95 211.63 753.79 211.63 753.79 213.9 755.95 213.9 755.95 215.55 753.79 215.55 753.79 217.82 755.95 217.82 755.95 219.46 753.79 219.46 753.79 221.73 755.95 221.73 755.95 223.38 753.79 223.38 753.79 225.65 755.95 225.65 755.95 227.29 753.79 227.29 753.79 229.56 755.95 229.56 755.95 231.21 753.79 231.21 753.79 233.48 755.95 233.48 755.95 235.28 753.79 235.28 753.79 237.54 755.95 237.54 755.95 239.35 753.79 239.35 753.79 241.62 755.95 241.62 755.95 243.42 753.79 243.42 753.79 245.68 755.95 245.68 755.95 247.49 753.79 247.49 753.79 249.75 755.95 249.75 755.95 251.56 753.79 251.56 753.79 253.82 755.95 253.82 755.95 255.63 753.79 255.63 753.79 257.89 755.95 257.89 755.95 259.7 753.79 259.7 753.79 261.96 755.95 261.96 755.95 263.76 753.79 263.76 753.79 266.03 755.95 266.03 755.95 267.83 753.79 267.83 753.79 270.1 755.95 270.1 755.95 271.9 753.79 271.9 753.79 274.17 755.95 274.17 755.95 276.03 753.79 276.03 753.79 278.29 755.95 278.29 788.71 278.29 790.88 278.29 790.88 276.03 788.71 276.03 788.71 274.17 790.88 274.17 790.88 271.9 788.71 271.9 788.71 270.1 790.88 270.1 790.88 267.83 788.71 267.83 788.71 266.03 790.88 266.03 790.88 263.76 788.71 263.76 788.71 261.96 790.88 261.96 790.88 259.7 788.71 259.7 788.71 257.89 790.88 257.89 790.88 255.63 788.71 255.63 788.71 253.82 790.88 253.82 790.88 251.56 788.71 251.56 788.71 249.75 790.88 249.75 790.88 247.49 788.71 247.49 788.71 245.68 790.88 245.68 790.88 243.42 788.71 243.42 788.71 241.62 790.88 241.62 790.88 239.35 788.71 239.35 788.71 237.54 790.88 237.54 790.88 235.28 788.71 235.28 788.71 233.48 790.88 233.48 790.88 231.21 788.71 231.21 788.71 229.56 790.88 229.56 790.88 227.29 788.71 227.29 788.71 225.65 790.88 225.65 790.88 223.38 788.71 223.38 788.71 221.73 790.88 221.73 790.88 219.46 788.71 219.46 788.71 217.82 790.88 217.82 790.88 215.55 788.71 215.55 788.71 213.9 790.88 213.9 790.88 211.63 788.71 211.63 788.71 209.99 790.88 209.99"/><polygon class="cls-2" points="324.3 124.63 324.3 121.54 321.46 121.54 321.46 107.68 317.65 105.31 317.65 88.93 315.18 88.93 315.18 103.61 285.81 97.89 285.81 107.78 281.07 107.68 281.07 278.29 321.46 278.29 321.46 273.3 324.3 273.3 324.3 270.2 321.46 270.2 321.46 267.58 324.3 267.58 324.3 264.49 321.46 264.49 321.46 261.86 324.3 261.86 324.3 258.77 321.46 258.77 321.46 256.14 324.3 256.14 324.3 253.05 321.46 253.05 321.46 250.42 324.3 250.42 324.3 247.33 321.46 247.33 321.46 244.71 324.3 244.71 324.3 241.62 321.46 241.62 321.46 238.99 324.3 238.99 324.3 235.9 321.46 235.9 321.46 233.27 324.3 233.27 324.3 230.18 321.46 230.18 321.46 227.55 324.3 227.55 324.3 224.46 321.46 224.46 321.46 221.83 324.3 221.83 324.3 218.74 321.46 218.74 321.46 216.12 324.3 216.12 324.3 213.03 321.46 213.03 321.46 210.4 324.3 210.4 324.3 207.31 321.46 207.31 321.46 204.68 324.3 204.68 324.3 201.59 321.46 201.59 321.46 198.96 324.3 198.96 324.3 195.87 321.46 195.87 321.46 193.24 324.3 193.24 324.3 190.15 321.46 190.15 321.46 187.53 324.3 187.53 324.3 184.44 321.46 184.44 321.46 181.81 324.3 181.81 324.3 178.72 321.46 178.72 321.46 176.09 324.3 176.09 324.3 173 321.46 173 321.46 170.37 324.3 170.37 324.3 167.28 321.46 167.28 321.46 164.65 324.3 164.65 324.3 161.56 321.46 161.56 321.46 158.94 324.3 158.94 324.3 155.84 321.46 155.84 321.46 153.22 324.3 153.22 324.3 150.13 321.46 150.13 321.46 147.5 324.3 147.5 324.3 144.41 321.46 144.41 321.46 141.78 324.3 141.78 324.3 138.69 321.46 138.69 321.46 136.06 324.3 136.06 324.3 132.97 321.46 132.97 321.46 130.35 324.3 130.35 324.3 127.25 321.46 127.25 321.46 124.63 324.3 124.63"/><polygon class="cls-2" points="405.38 85.22 401.98 85.22 398.27 85.22 398.27 83.75 398.27 79.5 395.95 79.5 395.95 81.63 393.64 81.63 393.64 83.75 382.97 83.75 382.97 85.22 377.25 85.22 377.25 278.29 401.98 278.29 401.98 90.47 405.38 90.47 405.38 85.22"/><path class="cls-3" d="M717.92,247.26V233.51c1.41.73,2.22,1.2,2.26,1.22a1.24,1.24,0,0,0,1.25-2.14c-.85-.49-20.92-12.07-40.8-12.07s-37.58,10-38.32,10.42a1.22,1.22,0,0,0-.6,1.07H639a14.22,14.22,0,0,0-14.14,12.78h4.46v2.47h-8.65v32.14H725.75V247.26ZM651.72,232h-6.14c1.42-.71,3.52-1.7,6.14-2.77Zm5.18,0H653v-3.26c1.22-.48,2.54-1,3.94-1.44Zm5.56,0h-4.33V226.9c1.38-.45,2.82-.89,4.33-1.29Zm6.21,0h-5v-6.74c1.6-.41,3.26-.78,5-1.1Zm5.77,0h-4.53V224c1.48-.25,3-.46,4.53-.62Zm6.8,0h-5.56v-8.8c1.63-.14,3.28-.22,4.95-.22h.62Zm6.8,0h-5.56v-9c1.86.07,3.72.24,5.56.49Zm5.77,0h-4.53v-8.31c1.53.24,3,.53,4.53.86Zm6.21,0h-5v-7.16c1.7.41,3.36.86,5,1.35Zm5.56,0h-4.33V226.6c1.5.48,2.95,1,4.33,1.49Zm1.24,0h0v-3.47c3.15,1.21,5.91,2.43,8.09,3.47Z"/><polygon class="cls-3" points="171.51 216.31 171.51 213.47 169.09 213.47 165.07 213.47 165.07 207.7 154.76 207.7 154.76 213.47 150.75 213.47 148.33 213.47 148.33 216.31 150.75 216.31 150.75 218.57 148.33 218.57 148.33 221.41 150.75 221.41 150.75 223.67 148.33 223.67 148.33 226.5 150.75 226.5 150.75 228.77 148.33 228.77 148.33 231.6 150.75 231.6 150.75 233.87 148.33 233.87 148.33 236.71 150.75 236.71 150.75 238.97 148.33 238.97 148.33 241.81 150.75 241.81 150.75 244.07 148.33 244.07 148.33 246.9 150.75 246.9 150.75 249.17 148.33 249.17 148.33 252 150.75 252 150.75 254.27 148.33 254.27 148.33 257.1 150.75 257.1 150.75 259.37 148.33 259.37 148.33 262.2 150.75 262.2 150.75 264.47 148.33 264.47 148.33 267.3 150.75 267.3 150.75 269.57 148.33 269.57 148.33 272.4 150.75 272.4 150.75 274.67 148.33 274.67 148.33 277.5 150.75 277.5 150.75 279.41 169.09 279.41 169.09 277.5 171.51 277.5 171.51 274.67 169.09 274.67 169.09 272.4 171.51 272.4 171.51 269.57 169.09 269.57 169.09 267.3 171.51 267.3 171.51 264.47 169.09 264.47 169.09 262.2 171.51 262.2 171.51 259.37 169.09 259.37 169.09 257.1 171.51 257.1 171.51 254.27 169.09 254.27 169.09 252 171.51 252 171.51 249.17 169.09 249.17 169.09 246.9 171.51 246.9 171.51 244.07 169.09 244.07 169.09 241.81 171.51 241.81 171.51 238.97 169.09 238.97 169.09 236.71 171.51 236.71 171.51 233.87 169.09 233.87 169.09 231.6 171.51 231.6 171.51 228.77 169.09 228.77 169.09 226.5 171.51 226.5 171.51 223.67 169.09 223.67 169.09 221.41 171.51 221.41 171.51 218.57 169.09 218.57 169.09 216.31 171.51 216.31"/><polygon class="cls-3" points="216.81 232.02 216.81 229.57 210.78 229.57 210.78 232.02 203.83 232.02 203.83 227.12 193.32 227.12 193.32 232.02 189.61 232.02 189.61 229.57 182.34 229.57 182.34 232.02 176.22 232.02 176.22 279.41 221.34 279.41 221.34 232.02 216.81 232.02"/><polygon class="cls-3" points="256.91 188.13 256.91 185.86 260 185.86 260 182.05 233.73 182.05 233.73 185.86 236.82 185.86 236.82 188.13 229.25 188.13 229.25 279.41 264.49 279.41 264.49 188.13 256.91 188.13"/><polygon class="cls-3" points="330.37 243.56 330.37 236.55 325.02 236.55 325.02 229.54 320.79 229.54 320.79 225.01 312.04 225.01 312.04 216.77 308.63 216.77 308.63 214.09 306.06 214.09 306.06 216.77 303.64 216.77 303.64 214.09 301.06 214.09 301.06 216.77 298.64 216.77 298.64 214.09 296.07 214.09 296.07 216.77 292.67 216.77 292.67 225.01 283.91 225.01 283.91 229.54 279.69 229.54 279.69 236.55 274.33 236.55 274.33 243.56 270.67 243.56 270.67 279.41 334.03 279.41 334.03 243.56 330.37 243.56"/><path class="cls-3" d="M421.64,229.72c-12.46,0-22.56,9.83-22.56,22h2.68v27.74h39.77V251.67h2.68C444.21,239.55,434.1,229.72,421.64,229.72Z"/><polygon class="cls-3" points="609.65 232.84 609.65 230.41 605.74 230.41 597.91 230.41 597.91 224.81 580.6 224.81 580.6 230.41 574.01 230.41 574.01 232.84 574.01 249.33 574.01 264.4 574.01 279.41 605.74 279.41 605.74 264.4 609.65 264.4 609.65 249.33 605.74 249.33 605.74 232.84 609.65 232.84"/><polygon class="cls-3" points="37.6 165.47 37.6 160.5 32.72 160.5 32.72 156.51 7.96 156.51 7.96 160.5 3.08 160.5 3.08 165.47 0.96 165.47 0.96 279.41 39.72 279.41 39.72 165.47 37.6 165.47"/><path class="cls-3" d="M136.78,177.35v-2.28s-13.88-2.7-19.85,1.71h-4.24v4.55h-1.93V200h-2.89v26.47h-3.47v26.47H99.78v26.47H142V177.35Z"/><polygon class="cls-3" points="78.36 167.28 78.36 161.02 68.69 161.02 68.69 167.28 55.78 167.28 55.78 279.41 91.26 279.41 91.26 167.28 78.36 167.28"/><path class="cls-3" d="M393.18,37.08V35.9l.7-.52V33.65s-11.67-4.49-15.75-5.75-4.21-2.63-4.15-3.19a18.5,18.5,0,0,0,3.37-2.38,21.34,21.34,0,0,0-3.25-1.13A2.15,2.15,0,0,0,371.69,19V17.45h-.88V19H368c0-1.71-.51-2.5-1-2.87L365.74,0l-1.23,16.17c-.54.37-1,1.16-1,2.87h-2.79V17.45h-.88V19a2.15,2.15,0,0,0-2.41,2.16,21.36,21.36,0,0,0-3.25,1.13,18.49,18.49,0,0,0,3.37,2.38c.06.56-.06,1.94-4.15,3.19s-15.75,5.75-15.75,5.75v1.74l.7.52v1.17l-5.9,2v.66c0,.38,2.79,1.71,8.45,1.71A5.22,5.22,0,0,1,342,43.18v2.07l-3.06,1.88a11.77,11.77,0,0,0,6.78,2.63h4.92S357,96.38,357,100.36s.38,34.68-1.52,48.14c-1.49,10.54-7.2,58.7-9.6,79.06-2.78.89-4.42,2-4.42,3.14s1.36,2.06,3.71,2.9l-.36,3.1-5.05,42.71h4.74l3-30.64s.63-5.83,1.53-14.11a73.17,73.17,0,0,0,11,1.34v43.41h11.37v-9h14.65l.89,9h4.74l-5.05-42.71-.36-3.1c2.35-.84,3.71-1.83,3.71-2.9s-1.64-2.25-4.43-3.14c-2.4-20.36-8.12-68.52-9.6-79.06-1.9-13.46-1.52-44.16-1.52-48.14s6.42-50.61,6.42-50.61h4.92a11.77,11.77,0,0,0,6.78-2.63l-3.06-1.88V43.18a5.21,5.21,0,0,1,1.11-1.77c5.66,0,8.45-1.33,8.45-1.71V39Zm-17.52,138.2h-4.23V159.61h2.37C374.48,166.08,375.16,171.53,375.66,175.27Zm.63,4.57c.17,1.18.64,5.27,1.28,10.9h-6.14V177.65H376C376.12,178.58,376.22,179.33,376.29,179.84Zm-4.86,28.74h8.12c.48,4.34,1,8.79,1.44,13.09h-9.56Zm0-2.38V193.11h6.41c.44,3.91.94,8.4,1.45,13.09ZM354.37,49.76h5.69V175.27h-4.23c1.39-10.42,4.23-34.15,4.23-55.94C360.06,93.16,356.08,56.77,354.37,49.76ZM350,226.56c2.06-18.91,4.77-43.51,5.23-46.72.07-.51.18-1.26.31-2.19h4.56V225.4A76.12,76.12,0,0,0,350,226.56Zm34,22.2.38,3.82H371.43V239.5h11.5Zm-12.51,19.29V255h13.12l1.3,13.09Zm11.25-30.93H371.43V236a73.2,73.2,0,0,0,11-1.34ZM371.43,225.4V224h9.82l.28,2.52A76.11,76.11,0,0,0,371.43,225.4Zm0-106.06c0,13,1,26.74,2.13,37.9h-2.13V49.76h5.69C375.41,56.77,371.43,93.16,371.43,119.34Z"/><path class="cls-3" d="M513.65,214.89v-2.36H498.14V215l-5.89.15v-4H476.74v4.68c-5.19.27-8.31.49-8.31.49v63.09h86.65V216.32S536.07,215,513.65,214.89Z"/><polygon class="cls-3" points="911.75 237.41 911.75 235.04 930.1 235.04 930.1 230.57 969.75 230.57 969.75 227.84 988.53 227.84 988.53 230.57 993.66 230.57 993.66 235.04 993.66 236.04 993.66 237.41 993.66 239.77 993.66 279.41 908.47 279.41 908.47 237.41 911.75 237.41"/><polygon class="cls-3" points="877.62 244.06 877.62 241.83 870.61 241.83 869.08 241.83 869.08 244.06 861.78 244.06 861.78 241.83 854.77 241.83 853.25 241.83 853.25 244.06 842.76 244.06 842.76 241.83 837.26 241.83 836.07 241.83 836.07 244.06 822.29 244.06 822.29 279.41 908.47 279.41 908.47 244.06 877.62 244.06"/><polygon class="cls-3" points="801.64 239.83 801.64 235.35 790.75 235.35 790.75 239.83 788.32 239.83 783.81 246.19 766.78 246.19 766.78 255.53 731.32 255.53 731.32 279.41 766.78 279.41 766.78 279.22 808.58 279.22 808.58 246.19 804.08 239.83 801.64 239.83"/><rect class="cls-2" y="260.81" width="1000" height="16.43"/><rect class="cls-3" y="262.97" width="1000" height="16.43"/><path class="cls-1" d="M851.85,257.86v-3.61H847.2l-8.26,7.23h-3.1v-5.16h-3.1V262h-2.58v4.9H819.32v-5.42H808v-7.23h-6.71v7.23H787.31c-7.74,0-10.84,10.33-10.84,10.33h-3.61c0,2.06,6.71,7.74,6.71,7.74h86.22V271.8Zm-22.2,16.52H799.7v-4.13h29.94Z"/></g></g></svg>